<?xml version="1.0" standalone="no"?>
<!DOCTYPE svg PUBLIC "-//W3C//DTD SVG 20010904//EN"
 "http://www.w3.org/TR/2001/REC-SVG-20010904/DTD/svg10.dtd">
<svg version="1.0" xmlns="http://www.w3.org/2000/svg"
 width="20%" height="17%" viewBox="0 0 500.000000 500.000000" fill="White"
 preserveAspectRatio="none">
<metadata>
Created by potrace 1.16, written by Peter Selinger 2001-2019
</metadata>

<g transform="translate(0.000000,500.000000) scale(0.100000,-0.100000)"
fill="White" stroke="none">
<path d="M3276 3792 c-5 -8 -88 -11 -302 -11 -352 0 -334 6 -334 -108 0 -67
-2 -74 -22 -82 l-22 -8 22 -5 c21 -6 22 -12 22 -107 0 -94 -1 -101 -20 -101
-11 0 -20 -4 -20 -10 0 -5 9 -10 20 -10 19 0 20 -7 20 -105 0 -98 -1 -105 -20
-105 -11 0 -20 -4 -20 -10 0 -5 9 -10 20 -10 18 0 20 -7 20 -73 0 -97 11 -107
108 -107 65 0 72 -2 72 -20 0 -11 5 -20 10 -20 6 0 10 9 10 20 0 19 7 20 105
20 102 0 105 -1 106 -22 l0 -23 9 23 c9 22 13 23 112 20 91 -3 103 -5 102 -20
-2 -25 12 -23 19 2 4 18 14 20 74 20 97 0 107 9 111 104 4 67 7 76 23 76 10 0
19 5 19 10 0 6 -9 10 -20 10 -19 0 -20 7 -20 105 0 98 1 105 20 105 11 0 20 5
20 10 0 6 -9 10 -20 10 -19 0 -20 7 -20 104 0 101 1 105 23 109 21 4 21 4 1 6
-20 1 -22 8 -26 82 -4 101 -13 109 -114 109 -47 0 -74 4 -76 12 -3 9 -6 9 -12
0z m172 -44 c9 -9 12 -109 12 -387 0 -334 -2 -376 -17 -393 -15 -17 -40 -18
-385 -18 -355 0 -369 1 -388 20 -19 19 -20 33 -20 386 0 233 4 372 10 385 10
18 25 19 393 19 285 0 386 -3 395 -12z"/>
<path d="M3003 3686 c-61 -28 -68 -51 -68 -233 l0 -163 31 -31 c59 -59 164
-48 200 22 12 25 15 60 12 190 l-3 159 -30 29 c-37 37 -95 48 -142 27z m96
-17 c53 -18 61 -49 61 -219 l0 -152 -29 -29 c-23 -23 -38 -29 -71 -29 -94 0
-110 32 -110 223 0 132 2 147 21 171 35 44 72 54 128 35z"/>
<path d="M2865 3313 c14 -77 54 -123 131 -152 l49 -19 0 -48 c0 -49 0 -49 -35
-52 -19 -2 -39 -8 -44 -13 -6 -5 27 -9 87 -9 58 0 97 4 97 10 0 6 -17 10 -39
10 -35 0 -39 3 -45 31 -11 54 1 76 47 88 49 12 99 59 121 113 18 42 21 82 6
73 -5 -3 -10 -15 -10 -27 0 -36 -43 -99 -86 -124 -51 -30 -125 -32 -170 -5
-44 27 -84 82 -91 125 -3 20 -10 36 -15 36 -6 0 -7 -15 -3 -37z"/>
<path d="M2345 3730 c-186 -26 -382 -163 -481 -336 -124 -215 -125 -481 -2
-701 41 -75 177 -210 253 -253 33 -19 63 -38 67 -44 4 -6 8 -33 8 -60 0 -37
-6 -55 -25 -78 -20 -23 -25 -41 -25 -82 0 -61 16 -82 71 -92 44 -9 49 -17 49
-86 0 -93 20 -102 229 -96 126 3 134 4 152 27 14 17 19 39 19 86 l0 62 42 6
c54 7 68 27 68 97 0 43 -5 63 -20 80 -17 20 -20 35 -18 84 l3 59 64 35 c82 45
196 158 248 246 43 72 45 86 13 86 -13 0 -27 -15 -41 -42 -27 -53 -88 -131
-131 -165 -18 -15 -35 -30 -38 -34 -12 -14 -91 -59 -105 -59 -12 0 -15 16 -15
85 0 67 3 85 14 85 39 0 62 104 33 144 -19 26 -99 33 -132 12 -22 -14 -25 -24
-25 -70 0 -53 19 -86 48 -86 9 0 12 -49 12 -181 l0 -180 -27 3 -28 3 -5 137
-5 138 -110 112 c-60 62 -115 116 -122 120 -8 6 -10 25 -7 56 5 42 3 50 -23
74 -15 15 -41 30 -56 33 -24 6 -33 1 -67 -34 -22 -23 -40 -48 -40 -56 0 -17
55 -82 81 -96 13 -6 25 -6 38 1 17 9 36 -6 140 -113 l121 -122 0 -127 0 -128
-35 0 -35 0 0 128 c0 95 -4 133 -14 148 -8 10 -18 15 -23 11 -4 -5 -10 -70
-13 -145 l-5 -137 -50 0 -50 0 -3 110 -3 110 31 18 c28 17 30 22 30 76 0 51
-3 61 -25 75 -28 19 -74 21 -109 5 -46 -21 -46 -137 0 -158 23 -10 24 -14 24
-126 0 -115 0 -115 -24 -115 -30 0 -36 16 -36 94 l0 63 -42 19 c-168 74 -297
231 -354 429 -20 70 -19 255 2 325 82 276 301 458 574 477 82 6 100 13 100 41
0 13 -78 15 -165 2z m379 -1516 c10 -27 7 -61 -8 -73 -9 -8 -88 -11 -267 -9
l-254 3 -3 33 c-6 65 -18 62 267 62 227 0 260 -2 265 -16z"/>
<path d="M2264 3466 c-28 -21 -28 -121 0 -142 23 -16 99 -19 127 -4 27 15 28
119 1 143 -23 21 -101 23 -128 3z"/>
<path d="M2128 3230 c-14 -9 -18 -25 -18 -73 0 -36 5 -68 12 -75 20 -20 112
-15 131 6 19 20 23 107 8 131 -11 18 -109 26 -133 11z"/>
<path d="M2420 3163 c-24 -9 -30 -25 -30 -78 0 -54 5 -64 35 -81 18 -10 20
-23 23 -110 3 -104 11 -126 37 -104 12 10 15 34 15 110 0 93 1 97 24 108 43
19 47 130 6 152 -20 11 -85 12 -110 3z"/>
<path d="M1361 1555 c-35 -80 -72 -157 -83 -170 l-19 -25 35 0 c26 0 34 4 30
14 -3 7 2 30 10 50 l15 37 58 -3 c56 -3 57 -4 72 -41 12 -33 12 -40 0 -48 -9
-6 10 -9 53 -9 64 0 67 1 52 18 -8 10 -45 83 -81 162 -36 80 -69 148 -72 153
-4 4 -36 -58 -70 -138z"/>
<path d="M1648 1688 c8 -8 12 -58 12 -158 0 -100 -4 -150 -12 -158 -9 -9 1
-12 47 -12 46 0 56 3 47 12 -8 8 -12 58 -12 158 0 100 4 150 12 158 9 9 -1 12
-47 12 -46 0 -56 -3 -47 -12z"/>
<path d="M1852 1680 c-56 -53 -36 -109 63 -177 79 -54 95 -88 53 -117 -47 -33
-108 -11 -133 47 l-13 30 -7 -33 c-11 -50 18 -70 102 -70 58 0 67 3 94 29 22
23 29 39 29 68 0 45 -13 59 -102 118 -31 20 -59 43 -62 51 -15 40 44 75 94 54
17 -7 30 -18 31 -24 0 -11 17 21 18 37 1 4 -32 7 -72 7 -60 0 -77 -4 -95 -20z"/>
<path d="M2080 1678 c0 -17 3 -19 12 -10 7 7 31 12 55 12 l43 0 0 -154 c0
-114 -3 -156 -12 -159 -7 -3 15 -6 50 -6 58 -1 62 0 48 15 -13 13 -16 42 -16
160 l0 144 41 0 c22 0 49 -5 60 -10 16 -9 19 -7 19 10 0 19 -6 20 -150 20
-148 0 -150 0 -150 -22z"/>
<path d="M2634 1690 c-31 -12 -36 -24 -23 -57 l12 -28 8 31 c12 44 58 63 94
40 34 -22 41 -58 20 -112 -15 -40 -33 -65 -123 -176 l-23 -28 114 0 115 0 6
28 c4 15 9 35 13 46 5 18 4 18 -18 2 -15 -10 -44 -16 -82 -16 l-59 0 57 51
c64 60 85 94 85 143 0 54 -45 86 -118 85 -31 0 -67 -4 -78 -9z"/>
<path d="M2961 1684 c-79 -56 -79 -252 0 -308 14 -10 44 -16 75 -16 45 0 57 4
82 30 73 73 61 254 -19 295 -37 20 -109 19 -138 -1z m103 -13 c42 -46 40 -241
-3 -284 -43 -44 -81 6 -88 118 -10 134 39 223 91 166z"/>
<path d="M3245 1688 c-11 -6 -21 -12 -23 -13 -2 -2 0 -20 4 -41 l7 -37 11 33
c6 20 23 41 39 50 24 13 30 13 55 0 22 -13 28 -24 30 -58 4 -53 -28 -114 -104
-200 l-56 -63 118 3 118 3 12 49 12 48 -22 -21 c-18 -17 -35 -21 -82 -21 l-59
0 53 47 c98 84 118 172 49 213 -36 22 -129 27 -162 8z"/>
<path d="M3590 1690 c-8 -5 -26 -10 -39 -10 -20 0 -22 -3 -13 -12 17 -17 17
-294 0 -301 -7 -3 14 -6 47 -6 46 -1 56 2 47 11 -8 8 -12 60 -12 170 0 87 -3
158 -7 158 -5 0 -15 -5 -23 -10z"/>
</g>
</svg>
